<?xml version="1.0" encoding="utf-8"?>
<!-- Generator: Adobe Illustrator 25.2.1, SVG Export Plug-In . SVG Version: 6.00 Build 0)  -->
<svg version="1.1" id="Calque_1" xmlns="http://www.w3.org/2000/svg" xmlns:xlink="http://www.w3.org/1999/xlink" x="0px" y="0px"
	 viewBox="0 0 50 50" style="enable-background:new 0 0 50 50;" xml:space="preserve">
<style type="text/css">
	.st0{fill:none;}
	.st1{fill:#F7F5EF;}
</style>
<path class="st0" d="M13,13h24v24H13V13z"/>
<path class="st1" d="M33,28.4c-1.2,0-2.4-0.2-3.5-0.6c-0.4-0.1-0.7,0-1,0.2l-1.6,2c-2.8-1.4-5.5-3.9-6.9-6.8l2-1.7
	c0.3-0.3,0.4-0.7,0.2-1c-0.4-1.1-0.6-2.3-0.6-3.5c0-0.5-0.4-1-1-1h-3.4c-0.5,0-1.2,0.2-1.2,1c0,9.3,7.7,17,17,17c0.7,0,1-0.6,1-1.2
	v-3.5C34,28.8,33.5,28.4,33,28.4z"/>
</svg>
